<?xml version="1.0" encoding="iso-8859-1"?>
<!-- Uploaded to: SVG Repo, www.svgrepo.com, Generator: SVG Repo Mixer Tools -->
<svg height="800px" width="800px" version="1.1" id="Layer_1" xmlns="http://www.w3.org/2000/svg" xmlns:xlink="http://www.w3.org/1999/xlink" 
	 viewBox="0 0 512.001 512.001" xml:space="preserve">
<path style="fill:#6FA7AD;" d="M180.959,360.105c1.082,1.086,1.946,2.411,2.49,3.912l7.873,21.643l21.634,7.872
	c1.5,0.544,2.827,1.405,3.91,2.488c1.919,1.917,3.082,4.54,3.138,7.369c0.082,4.428-2.567,8.452-6.665,10.122l-60.625,24.724
	c-3.994,1.629-8.57,0.705-11.616-2.344c-3.044-3.046-3.972-7.623-2.343-11.614l24.719-60.642c1.673-4.1,5.69-6.75,10.123-6.664
	C176.424,357.023,179.043,358.187,180.959,360.105z"/>
<path style="fill:#E84731;" d="M303.785,418.139c-4.455,0-8.726-1.771-11.869-4.919L176.102,297.278
	c-16.374-16.372-25.394-38.149-25.394-61.311c0-23.158,9.019-44.933,25.394-61.31c16.37-16.375,38.141-25.397,61.296-25.397
	c23.156,0,44.927,9.022,61.299,25.397l5.088,5.091l5.084-5.091c16.375-16.375,38.146-25.397,61.299-25.397
	c23.158,0,44.925,9.022,61.298,25.397c16.372,16.376,25.392,38.152,25.392,61.31c0,23.162-9.019,44.938-25.392,61.313L315.65,413.22
	C312.507,416.368,308.237,418.139,303.785,418.139z"/>
<g style="opacity:0.1;">
	<path d="M209.294,297.278c-16.374-16.373-25.394-38.149-25.394-61.311c0-23.158,9.019-44.933,25.394-61.31
		c12.387-12.391,27.869-20.562,44.7-23.809c-5.412-1.044-10.962-1.588-16.596-1.588c-23.155,0-44.926,9.022-61.296,25.397
		c-16.374,16.376-25.394,38.152-25.394,61.31c0,23.162,9.019,44.938,25.394,61.311l115.814,115.941
		c3.144,3.149,7.415,4.919,11.869,4.919c4.452,0,8.723-1.771,11.866-4.919l4.728-4.733L209.294,297.278z"/>
</g>
<path style="fill:#FFED84;" d="M447.352,74.573c1.529-1.53,3.784-2.085,5.853-1.435c2.066,0.647,3.6,2.394,3.983,4.526l6.447,36.049
	l35.691,6.13c2.145,0.369,3.9,1.902,4.558,3.974c0.659,2.07,0.107,4.337-1.427,5.874l-64.976,64.985
	c-1.333,1.335-3.235,1.939-5.094,1.621l-39.715-6.82c-2.414-0.415-4.311-2.297-4.741-4.708l-7.164-40.071
	c-0.335-1.87,0.266-3.79,1.611-5.136L447.352,74.573z"/>
<path style="fill:#FFD3CA;" d="M57.077,275.938c-1.434,0-2.807-0.572-3.818-1.586l-37.253-37.4
	c-5.268-5.282-8.168-12.306-8.168-19.778c0-7.47,2.9-14.495,8.168-19.777c5.266-5.281,12.267-8.191,19.716-8.191
	c7.45,0,14.452,2.91,19.719,8.191l1.636,1.644l1.636-1.644c5.265-5.281,12.268-8.191,19.718-8.191c7.448,0,14.449,2.91,19.718,8.191
	c5.265,5.282,8.168,12.307,8.168,19.777c0,7.471-2.903,14.496-8.168,19.778l-37.254,37.4
	C59.883,275.366,58.509,275.938,57.077,275.938z"/>
<g>
	<path style="fill:#F49889;" d="M90.187,383.672c-1.157,0-2.265-0.461-3.081-1.28l-30.079-30.196
		c-4.253-4.264-6.595-9.935-6.595-15.967c0-6.031,2.342-11.703,6.595-15.967c4.252-4.263,9.906-6.614,15.919-6.614
		c6.014,0,11.667,2.351,15.92,6.614l1.322,1.327l1.322-1.327c4.251-4.263,9.906-6.614,15.919-6.614
		c6.014,0,11.666,2.351,15.921,6.614c4.251,4.264,6.595,9.936,6.595,15.967c0,6.032-2.344,11.703-6.595,15.967L93.27,382.392
		C92.451,383.21,91.343,383.672,90.187,383.672z"/>
	<path style="fill:#F49889;" d="M121.331,157.212c-1.157,0-2.266-0.461-3.082-1.28l-30.078-30.196
		c-4.253-4.264-6.596-9.936-6.596-15.967c0-6.031,2.343-11.703,6.596-15.967c4.251-4.264,9.904-6.614,15.918-6.614
		c6.015,0,11.668,2.351,15.92,6.614l1.323,1.327l1.321-1.327c4.252-4.264,9.906-6.614,15.919-6.614
		c6.014,0,11.666,2.351,15.921,6.614c4.252,4.264,6.596,9.936,6.596,15.967c0,6.032-2.344,11.703-6.596,15.967l-30.078,30.196
		C123.596,156.751,122.488,157.212,121.331,157.212z"/>
</g>
<g style="opacity:0.1;">
	<path d="M109.938,120.002c-4.253-4.264-6.596-9.936-6.596-15.967c0-6.031,2.343-11.703,6.596-15.967
		c0.024-0.025,0.053-0.046,0.077-0.07c-1.909-0.52-3.894-0.81-5.927-0.81c-6.014,0-11.667,2.351-15.918,6.614
		c-4.253,4.264-6.596,9.936-6.596,15.967c0,6.032,2.343,11.703,6.596,15.967l30.078,30.196c0.816,0.819,1.926,1.28,3.082,1.28
		c1.156,0,2.265-0.461,3.082-1.28l10.656-10.699L109.938,120.002z"/>
</g>
<g style="opacity:0.1;">
	<path d="M37.772,231.219c-5.268-5.282-8.168-12.306-8.168-19.778c0-7.47,2.9-14.496,8.168-19.777
		c0.751-0.752,1.541-1.451,2.358-2.106c-1.445-0.229-2.917-0.351-4.409-0.351c-7.449,0-14.45,2.91-19.716,8.191
		c-5.268,5.282-8.168,12.307-8.168,19.777c0,7.471,2.9,14.496,8.168,19.778l37.253,37.4c1.012,1.015,2.384,1.586,3.818,1.586
		c1.433,0,2.807-0.572,3.818-1.586l9.921-9.96L37.772,231.219z"/>
</g>
<path d="M500.653,112.12l-30.272-5.199l-5.479-30.639c-1.904-10.621-15.428-14.921-23.091-7.249l-64.975,64.988
	c-2.048,2.049-3.347,4.667-3.803,7.451c-0.952-0.03-1.906-0.048-2.863-0.048c-25.03,0-48.578,9.667-66.385,27.24
	c-17.802-17.572-41.351-27.24-66.386-27.24c-25.25,0-48.986,9.834-66.838,27.692c-17.855,17.857-27.688,41.599-27.688,66.851
	c0,25.257,9.833,48.999,27.685,66.849l46.096,46.147l-22.247,22.252l-3.589-9.865c-0.927-2.56-2.376-4.84-4.315-6.784
	c-3.412-3.414-7.943-5.341-12.753-5.43c-7.568-0.183-14.656,4.489-17.532,11.541l-24.718,60.639
	c-2.826,6.925-1.235,14.821,4.055,20.113c3.551,3.555,8.279,5.442,13.101,5.442c2.359,0,4.741-0.451,7.018-1.38l15.512-6.326
	c4.008-1.634,5.932-6.208,4.297-10.216c-1.633-4.008-6.21-5.931-10.215-4.298l-15.512,6.326c-1.071,0.437-2.295,0.193-3.114-0.627
	s-1.067-2.043-0.629-3.116l24.718-60.641c0.971-2.376,4.47-2.329,5.355,0.102l6.093,16.748l-16.81,16.813
	c-3.06,3.06-3.06,8.023,0.001,11.082c1.531,1.53,3.536,2.295,5.541,2.295c2.006,0,4.012-0.765,5.542-2.296l16.68-16.683
	l17.155,6.242c2.414,0.875,2.455,4.393,0.095,5.355l-15.857,6.467c-4.008,1.634-5.932,6.208-4.297,10.216
	c1.633,4.006,6.207,5.931,10.215,4.298l15.855-6.466c7.045-2.87,11.684-9.913,11.544-17.531c-0.095-4.822-2.025-9.354-5.431-12.758
	c-1.905-1.904-4.248-3.396-6.773-4.311l-10.28-3.741l22.372-22.376l58.64,58.705c4.648,4.656,10.832,7.22,17.415,7.22
	c6.485,0,12.831-2.632,17.41-7.218l81.95-82.038c3.059-3.061,3.056-8.024-0.005-11.083c-3.064-3.059-8.025-3.055-11.083,0.006
	l-81.951,82.039c-1.662,1.664-3.966,2.62-6.321,2.62c-2.356,0-4.661-0.955-6.325-2.622l-115.817-115.94
	c-14.895-14.893-23.097-34.7-23.097-55.769c0-21.066,8.203-40.872,23.099-55.769c14.892-14.897,34.691-23.101,55.753-23.101
	s40.863,8.204,55.756,23.1l5.088,5.091c1.469,1.471,3.464,2.298,5.544,2.297c2.079-0.001,4.074-0.828,5.544-2.299l5.081-5.088
	c14.897-14.897,34.699-23.101,55.757-23.101c1.637,0,3.264,0.069,4.885,0.171l5.095,28.497l-68.529,68.498v-6.568
	c0-4.328-3.509-7.836-7.837-7.836c-4.329,0-7.837,3.509-7.837,7.838l0.001,17.457h-17.451c-4.328,0-7.837,3.509-7.837,7.837
	s3.508,7.837,7.837,7.837h17.451l0.001,17.457c0,4.328,3.509,7.837,7.837,7.837s7.837-3.509,7.837-7.837l-0.001-17.457h17.451
	c4.328,0,7.837-3.509,7.837-7.837s-3.508-7.837-7.837-7.837h-6.176l68.067-68.037c0.129,0.026,0.254,0.06,0.383,0.082l39.717,6.821
	c0.761,0.131,1.536,0.196,2.307,0.196c2.811,0,5.568-0.902,7.852-2.504c5.099,10.549,7.801,22.192,7.801,34.254
	c0,21.069-8.203,40.876-23.099,55.774l-8.817,8.826c-3.058,3.063-3.055,8.024,0.006,11.082c3.065,3.059,8.026,3.055,11.083-0.006
	l8.814-8.823c17.854-17.856,27.686-41.599,27.686-66.853c0-16.244-4.084-31.854-11.741-45.684l55.05-55.056
	c3.618-3.626,4.901-8.909,3.35-13.782C509.801,116.561,505.701,112.988,500.653,112.12z M422.956,110.058l4.992,27.929l-9.911,9.907
	l-4.991-27.924L422.956,110.058z M388.667,144.354l10.873-10.875l4.99,27.915l-10.874,10.87L388.667,144.354z M432.679,188.394
	l-28.152-4.835l10.825-10.821c0.125,0.025,0.248,0.059,0.374,0.079l27.759,4.768L432.679,188.394z M457.056,164.014l-28.141-4.834
	l9.862-9.857c0.122,0.024,0.242,0.056,0.367,0.077l27.758,4.767L457.056,164.014z M480.471,140.596l-28.17-4.838
	c2.6-3.079,2.456-7.686-0.445-10.588c-2.839-2.839-7.311-3.041-10.386-0.614l-5.007-28.007l13.693-13.695l5.766,32.239
	c0.581,3.249,3.135,5.786,6.387,6.343l31.85,5.47L480.471,140.596z"/>
<path d="M57.077,283.775c3.539,0,6.865-1.381,9.371-3.892l37.252-37.397c6.742-6.762,10.455-15.752,10.455-25.31
	c0-9.558-3.714-18.547-10.457-25.312c-6.752-6.767-15.724-10.493-25.266-10.493c-7.801,0-15.219,2.489-21.355,7.094
	c-6.136-4.604-13.555-7.094-21.355-7.094c-9.544,0-18.517,3.727-25.264,10.494C3.714,198.624,0,207.613,0,217.175
	c0,9.563,3.714,18.552,10.453,25.308l37.257,37.403C50.212,282.393,53.538,283.775,57.077,283.775z M15.673,217.175
	c0-5.383,2.088-10.442,5.881-14.243c3.787-3.797,8.819-5.888,14.168-5.888c5.351,0,10.384,2.092,14.167,5.884
	c4.61,4.858,9.764,4.859,14.377,0.003c3.785-3.797,8.817-5.888,14.169-5.888c5.349,0,10.382,2.092,14.169,5.887
	c3.793,3.804,5.882,8.863,5.882,14.244s-2.089,10.44-5.884,14.247l-35.521,35.659l-35.524-35.662
	C17.761,227.616,15.673,222.559,15.673,217.175z"/>
<path d="M128.895,314.725c-5.737-5.748-13.362-8.914-21.468-8.914c-6.248,0-12.211,1.88-17.241,5.375
	c-5.031-3.494-10.993-5.375-17.242-5.375c-8.109,0-15.734,3.166-21.468,8.916c-5.727,5.744-8.883,13.38-8.883,21.502
	c0,8.122,3.156,15.758,8.879,21.497l30.083,30.2c2.304,2.31,5.369,3.582,8.63,3.582c3.259,0,6.323-1.271,8.635-3.586l30.077-30.194
	c5.728-5.746,8.882-13.381,8.882-21.5S134.626,320.474,128.895,314.725z M117.796,346.665l-27.61,27.717l-27.612-27.721
	c-2.777-2.785-4.307-6.49-4.307-10.433c0-3.943,1.53-7.648,4.307-10.433c2.772-2.78,6.455-4.311,10.37-4.311
	s7.598,1.531,10.367,4.307c4.417,4.516,9.326,4.518,13.744,0.004c2.772-2.78,6.455-4.311,10.37-4.311
	c3.914,0,7.598,1.532,10.372,4.31c2.778,2.787,4.308,6.493,4.308,10.434C122.106,340.17,120.577,343.876,117.796,346.665z"/>
<path d="M112.698,161.464c2.271,2.278,5.418,3.584,8.633,3.584c3.212,0,6.358-1.305,8.635-3.586l10.699-10.741
	c3.055-3.067,3.045-8.029-0.022-11.082c-3.067-3.053-8.029-3.046-11.082,0.022l-8.23,8.262l-27.612-27.721
	c-2.778-2.785-4.308-6.49-4.308-10.433c0-3.942,1.53-7.648,4.309-10.434c2.771-2.779,6.453-4.311,10.368-4.311
	c3.915,0,7.598,1.531,10.37,4.31c4.566,4.559,9.302,4.496,13.741,0.001c2.772-2.78,6.455-4.311,10.37-4.311
	c3.914,0,7.598,1.532,10.373,4.311c2.777,2.787,4.308,6.492,4.308,10.433c0,3.214-1.001,6.256-2.894,8.798
	c-2.587,3.47-1.869,8.381,1.601,10.967c3.469,2.585,8.38,1.868,10.966-1.602c3.926-5.268,6.001-11.549,6.001-18.163
	c0-8.12-3.156-15.756-8.886-21.503c-5.737-5.749-13.361-8.915-21.468-8.915c-6.247,0-12.208,1.88-17.241,5.376
	c-5.029-3.494-10.992-5.376-17.242-5.376c-8.11,0-15.735,3.167-21.467,8.917c-5.729,5.744-8.884,13.38-8.884,21.502
	s3.156,15.758,8.88,21.497L112.698,161.464z"/>
<g style="opacity:0.1;">
	<path d="M78.793,346.462c-4.253-4.264-6.595-9.935-6.595-15.967c0-6.031,2.342-11.703,6.595-15.967
		c0.024-0.025,0.053-0.046,0.077-0.07c-1.909-0.519-3.894-0.81-5.926-0.81c-6.014,0-11.667,2.351-15.919,6.614
		c-4.253,4.264-6.595,9.936-6.595,15.967c0,6.032,2.342,11.703,6.595,15.967l30.079,30.196c0.816,0.818,1.925,1.28,3.081,1.28
		c1.156,0,2.265-0.461,3.082-1.28l10.657-10.699L78.793,346.462z"/>
</g>
</svg>